<?xml version="1.0" standalone="no"?>
<!DOCTYPE svg PUBLIC "-//W3C//DTD SVG 20010904//EN"
 "http://www.w3.org/TR/2001/REC-SVG-20010904/DTD/svg10.dtd">
<svg version="1.0" xmlns="http://www.w3.org/2000/svg"
 width="250.000000pt" height="149.000000pt" viewBox="0 0 250.000000 149.000000"
 preserveAspectRatio="xMidYMid meet">

<g transform="translate(0.000000,149.000000) scale(0.100000,-0.100000)"
fill="#000000" stroke="none">
<path d="M22 1471 c6 -19 148 -178 220 -247 135 -130 263 -226 277 -208 3 5
27 15 54 22 47 12 79 5 98 -22 4 -5 12 -5 19 -1 6 4 22 -3 36 -16 24 -22 26
-23 35 -6 6 9 19 17 30 17 16 0 19 5 14 20 -8 25 16 27 36 3 23 -27 71 -42
109 -34 39 9 42 6 -52 42 -186 72 -464 241 -653 398 l-50 41 -88 0 c-51 0 -87
-4 -85 -9z"/>
<path d="M320 821 c0 -5 9 -7 20 -4 19 5 20 0 20 -66 0 -56 3 -71 15 -71 12 0
15 15 15 71 0 66 1 70 20 64 11 -4 20 -2 20 4 0 7 -23 11 -55 11 -30 0 -55 -4
-55 -9z"/>
<path d="M937 759 c-15 -40 -26 -74 -23 -76 2 -3 7 5 11 16 9 28 60 29 75 1 6
-11 17 -20 24 -20 10 0 5 21 -17 75 -17 41 -34 75 -37 75 -3 0 -18 -32 -33
-71z m43 -11 c0 -11 -8 -18 -20 -18 -23 0 -24 1 -8 35 12 27 28 18 28 -17z"/>
<path d="M1070 755 l0 -75 43 1 c29 2 34 3 15 6 -27 4 -28 6 -28 74 0 55 -3
69 -15 69 -12 0 -15 -15 -15 -75z"/>
<path d="M1220 826 c0 -2 12 -24 26 -50 16 -29 24 -56 21 -71 -2 -16 0 -25 8
-25 7 0 15 18 19 39 3 22 16 56 27 75 12 20 16 36 10 36 -6 0 -11 -6 -11 -13
0 -7 -7 -23 -17 -36 l-16 -24 -19 37 c-10 20 -25 36 -33 36 -8 0 -15 -2 -15
-4z"/>
<path d="M1386 777 c-13 -30 -27 -66 -30 -79 l-6 -23 11 23 c16 29 68 31 76 2
3 -11 13 -20 23 -20 16 0 15 7 -12 72 -16 40 -31 74 -33 76 -2 3 -15 -20 -29
-51z m34 -29 c0 -11 -8 -18 -20 -18 -23 0 -24 1 -8 35 12 27 28 18 28 -17z"/>
<path d="M1516 778 c-4 -29 -10 -64 -13 -77 -4 -17 -2 -22 6 -17 6 4 11 25 11
47 0 43 14 52 26 17 4 -13 14 -34 22 -47 l16 -23 27 53 27 53 7 -52 c4 -34 12
-52 20 -52 11 0 13 12 8 53 -3 28 -9 63 -13 77 -7 23 -9 21 -35 -32 -16 -31
-33 -55 -37 -52 -5 3 -18 28 -30 55 -12 27 -25 49 -29 49 -3 0 -10 -24 -13
-52z"/>
<path d="M1733 755 c-17 -41 -27 -75 -23 -75 5 0 12 9 15 20 5 14 15 20 37 20
21 0 31 -6 35 -20 3 -11 12 -20 20 -20 10 0 13 6 9 18 -32 86 -52 132 -56 132
-3 0 -20 -34 -37 -75z m46 -12 c1 -7 -8 -13 -19 -13 -23 0 -25 12 -8 43 11 21
11 21 19 2 4 -11 8 -26 8 -32z"/>
<path d="M1876 799 c-3 -18 -6 -41 -5 -53 1 -19 2 -18 8 4 7 24 9 23 32 -23
l23 -48 18 23 c21 27 24 45 5 29 -11 -8 -19 0 -37 40 -30 63 -36 67 -44 28z"/>
<path d="M1989 798 c-7 -18 -15 -37 -17 -43 -2 -5 2 -1 10 9 14 18 15 16 20
-28 6 -49 11 -61 25 -55 10 5 -6 149 -17 149 -4 0 -14 -15 -21 -32z"/>
<path d="M2092 756 c-17 -42 -27 -76 -22 -76 4 0 10 9 13 20 4 14 14 20 35 20
22 0 32 -6 37 -20 3 -11 13 -20 21 -20 8 0 14 1 14 3 0 9 -53 133 -59 140 -5
4 -22 -26 -39 -67z m42 8 c10 -26 7 -34 -14 -34 -11 0 -20 4 -20 9 0 17 12 41
20 41 4 0 11 -7 14 -16z"/>
<path d="M440 730 c0 -27 5 -50 10 -50 6 0 10 13 10 29 0 19 8 35 22 45 12 9
19 19 15 22 -4 4 -13 1 -22 -6 -10 -8 -15 -9 -15 -1 0 6 -4 11 -10 11 -5 0
-10 -22 -10 -50z"/>
<path d="M556 771 c15 -7 21 -19 22 -46 1 -37 8 -55 20 -55 4 0 5 24 2 53 -5
49 -7 52 -35 54 -26 2 -27 1 -9 -6z"/>
<path d="M640 731 c0 -57 19 -71 22 -16 0 19 1 40 2 47 1 6 -5 13 -11 16 -9 2
-13 -11 -13 -47z"/>
<path d="M693 770 c11 -8 17 -24 17 -50 0 -22 5 -40 11 -40 6 0 9 19 7 48 -3
42 -6 47 -28 50 -22 2 -23 1 -7 -8z"/>
<path d="M767 773 c-15 -14 -6 -44 18 -55 13 -6 26 -18 28 -27 3 -14 5 -13 12
3 6 15 2 24 -20 41 -15 13 -24 28 -21 34 8 12 -6 15 -17 4z"/>
<path d="M532 721 c-19 -12 -11 -45 13 -50 17 -3 18 -1 6 13 -7 9 -11 23 -7
31 6 17 6 18 -12 6z"/>
<path d="M1862 700 c0 -14 2 -19 5 -12 2 6 2 18 0 25 -3 6 -5 1 -5 -13z"/>
<path d="M765 680 c3 -5 14 -10 23 -10 15 0 15 2 2 10 -20 13 -33 13 -25 0z"/>
<path d="M1746 479 c-9 -11 -24 -18 -32 -15 -17 7 -18 -6 -2 -22 20 -20 -23
-15 -46 6 -31 27 -71 41 -87 31 -8 -5 -23 -6 -34 -3 -40 12 1 -12 60 -36 198
-77 440 -223 646 -387 l66 -53 92 0 92 0 -74 88 c-104 121 -236 248 -336 320
-78 58 -86 61 -102 46 -10 -9 -23 -13 -29 -9 -6 4 -17 1 -25 -5 -19 -16 -81
-4 -95 18 -9 13 -12 14 -17 4 -4 -10 -12 -7 -32 12 l-27 26 -18 -21z"/>
</g>
</svg>
